<svg id="Capa_1" enable-background="new 0 0 512 512" height="512" viewBox="0 0 512 512" width="512" xmlns="http://www.w3.org/2000/svg"><g><path d="m291.602 224.418c-14.401-18.468-40.203-22.733-59.627-10.336-10.547-14.06-28.105-20.65-45.162-17.114 33.582-18.586 54.297-53.834 54.297-91.968 0-57.897-47.103-105-105-105s-105 47.102-105 105c0 40.71 23.659 77.547 59.85 94.801v42.701c-33.296 6.748-59.889 36.415-59.709 73.57l.161 33.067c.162 44.125 23.13 84.38 60.488 106.999 4.457 31.529 31.621 55.862 64.36 55.862h105.7c35.841 0 65-29.159 65-65v-3.419c21.88-21.669 34.3-51.266 34.3-82.251v-99.298c0-35.904-40.06-57.082-69.658-37.614zm-230.492-119.417c0-41.355 33.645-75 75-75s75 33.644 75 75c0 23.692-11.224 45.966-30.15 60.113v-59.113c0-24.813-20.187-45-45-45s-45 20.186-45 45v58.887c-18.427-13.935-29.85-35.977-29.85-59.887zm270.15 256.329c0 24.685-10.641 48.182-29.194 64.463-6.27 5.502-5.106 12.135-5.106 21.207 0 19.299-15.701 35-35 35h-105.7c-19.299 0-35-15.701-35-35 0-5.608-3.129-10.748-8.111-13.324-31.781-16.433-51.606-48.867-51.737-84.664l-.161-33.086c-.097-19.778 12.584-36.279 29.709-42.36v57.434c0 8.284 6.716 15 15 15s15-6.716 15-15v-224.999c0-8.271 6.729-15 15-15s15 6.729 15 15v146.077c0 8.284 6.716 15 15 15s15-6.716 15-15v-11.046c0-8.271 6.729-15 15-15s15 6.729 15 15c0 10.925.15 12.758.15 20.969 0 8.284 6.716 15 15 15s15-6.716 15-15v-9.968c0-8.271 6.729-15 15-15s15 6.729 15 15c0 20.045.15 3.461.15 20.045 0 8.284 6.716 15 15 15s15-6.716 15-15v-10.044c0-8.271 6.729-15.001 15-15.001s15 6.729 15 15z"/><path d="m476.291 94.136-31-29.842c-5.968-5.744-15.464-5.563-21.209.404-5.745 5.968-5.564 15.464.404 21.209l4.521 4.352h-38.459v-38.003l4.09 4.205c5.776 5.938 15.273 6.068 21.211.292 5.938-5.777 6.069-15.273.292-21.212l-28.203-28.99c-5.501-8.051-17.058-8.656-23.513-1.953l-29.842 31c-5.745 5.969-5.564 15.465.404 21.21s15.464 5.563 21.209-.403l4.352-4.521v38.375h-38.728l4.529-4.406c5.938-5.777 6.069-15.273.292-21.212-5.776-5.937-15.273-6.067-21.211-.292l-31 30.158c-6.074 5.91-6.049 15.681.057 21.559l31 29.842c5.969 5.745 15.464 5.564 21.209-.404s5.564-15.464-.404-21.209l-4.192-4.035h38.447v38.011l-4.407-4.53c-5.776-5.937-15.273-6.067-21.211-.292-5.938 5.777-6.069 15.273-.292 21.212l30.885 31.675c6.19 5.584 15.402 4.918 20.831-.733l29.842-31c5.745-5.968 5.564-15.464-.404-21.209s-15.464-5.564-21.209.404l-4.035 4.192v-37.731h38.086l-4.204 4.09c-5.938 5.777-6.069 15.273-.292 21.212 5.776 5.937 15.274 6.068 21.211.292l28.989-28.202c8.052-5.501 8.659-17.061 1.954-23.515z"/></g></svg>